# xmcd
#
# Track frame offsets: 
#        150
#        12038
#        22838
#        39253
#        52915
#        62203
#        74731
#        84926
#        95261
#        106850
#        116723
#
# Disc length: 1759 seconds
#
# Revision: 2
# Processed by: cddbd v1.5.1PL0 Copyright (c) Steve Scherf et al.
# Submitted via: ExactAudioCopy v0.95a5
#
DISCID=7e06dd0b
DTITLE=Graham Gouldman - The Graham Gouldman Thing
DYEAR=2004
DGENRE=Pop/Rock
TTITLE0=The Impossible Years
TTITLE1=Bus Stop
TTITLE2=Behind The Door
TTITLE3=Pawnbroker
TTITLE4=Who Are They
TTITLE5=My Father
TTITLE6=No Milk Today
TTITLE7=Upstairs Downstairs
TTITLE8=For Your Love
TTITLE9=Pamela, Pamela
TTITLE10=Chestnut
EXTD=
EXTT0=
EXTT1=
EXTT2=
EXTT3=
EXTT4=
EXTT5=
EXTT6=
EXTT7=
EXTT8=
EXTT9=
EXTT10=
PLAYORDER=
